<svg width="542" height="102" viewBox="0 0 542 102" fill="none" xmlns="http://www.w3.org/2000/svg">
<path d="M619.471 10.421C619.471 10.421 612.551 -1.5568 596.479 1.499C585.756 3.53734 583.342 17.4815 583.342 17.4815C583.342 17.4815 580.682 6.96547 570.58 10.8311C570.58 10.8311 568.589 3.52533 562.931 9.59919C562.931 9.59919 550.853 -4.21798 533.924 5.30803C523.926 10.9341 523.79 25.9231 523.79 25.9231C523.79 25.9231 521.4 19.3551 513.726 20.5956C510.071 21.1858 509.234 26.0775 509.234 26.0775C509.234 26.0775 503.982 21.795 501.748 28.2085C501.748 28.2085 489.672 18.6842 477.226 29.0064C472.056 33.2941 470.965 40.3768 472.147 45.1004C473.501 50.5068 475.824 52.8248 475.824 52.8248C475.824 52.8248 472.823 54.0344 471.171 57.9052C469.452 61.9339 472.339 67.5136 481.56 71.1133C501.473 78.8892 513.731 59.8818 513.731 59.8818C513.731 59.8818 511.102 71.0841 539.823 61.7383C539.823 61.7383 542.71 70.4613 572.69 53.4219C589.863 43.6608 590.328 37.6196 556.481 48.5851C522.634 59.5507 506.439 68.996 535.089 72.093C563.739 75.19 548.743 60.4978 510.865 72.8909C472.988 85.2839 528.268 83.702 538.019 80.4042C538.019 80.4042 548.424 95.4465 567.98 85.066C567.98 85.066 616.188 87.0014 590.477 89.4241C564.767 91.8468 486.705 89.8153 486.705 89.8153C486.705 89.8153 470.855 82.8595 470.762 80.7474C470.671 78.6353 485.01 89.618 502.738 86.2225C502.738 86.2225 457.27 63.6119 450.789 52.5966C450.789 52.5966 466.09 61.0571 468.379 59.3757C470.67 57.6959 439.043 37.8152 439.043 37.8152C439.043 37.8152 409.485 24.7118 393.94 8.94548L389.809 11.5432L384.32 10.3782C384.32 10.3782 381.41 11.2309 380.097 11.0164C379.351 10.8946 372.369 8.16137 372.369 8.16137L368.807 9.57174L351.929 22.5087L354.669 25.6366L331.853 50.8328L354.625 34.351L350.821 44.5016L346.091 54.5869L353.058 44.5513L359.961 35.5195L364.851 31.834L366.67 35.3582C366.67 35.3582 367.404 32.4963 369.07 30.0839L371.101 32.0639L371.988 29.0458L376.992 28.2892L375.109 13.5832L382.957 30.5265L389.397 33.6064C389.397 33.6064 407.522 58.3633 414.049 68.3835L401.4 43.7123L396.304 37.2215L392.502 29.25L397.373 30.2675C397.373 30.2675 405.594 33.9427 406.45 34.6255C407.308 35.3084 398.537 24.6998 398.537 24.6998L421.24 39.3731C421.24 39.3731 441.665 50.6818 446.937 53.0067L429.203 40.8916L413.009 28.6804L437.696 53.971L460.483 69.183L474.316 77.5681L463.367 65.5988L450.844 57.0422L468.741 81.9553L478.331 90.1619L467.744 88.4461L467.188 93.1559C467.188 93.1559 446.494 91.0266 434.161 91.4144C421.827 91.8004 372.46 93.8302 339.124 94.1648C305.79 94.4976 271.993 93.3446 271.993 93.3446C271.993 93.3446 294.325 85.7249 307.901 86.2465C324.878 86.8985 333.534 76.9229 358.532 82.8389C382.086 88.4135 363.82 78.4225 394.728 80.5432C425.634 82.6639 490.183 97.9292 502.542 97.6444C514.901 97.3579 536.743 95.7811 537.163 98.2483C537.585 100.714 485.805 102.16 456.105 99.8028C426.406 97.4454 410.127 97.6015 371.324 92.7132C341.889 89.0037 226.564 95.4122 224.107 94.9197C223.738 94.8459 216.177 91.8348 210.378 90.8516C188.278 87.0992 117.983 93.7255 117.983 93.7255C117.983 93.7255 135.424 85.1913 154.97 83.3125C169.183 81.9467 196.215 71.2489 196.215 71.2489L203.895 73.2168L222.29 68.8948L227.182 61.2476C227.182 61.2476 241.229 53.5077 248.442 48.8888L257.935 54.2095L264.687 52.7373L274.362 56.4657C274.362 56.4657 299.65 48.9695 313.587 43.7175C327.524 38.4655 348.88 24.7169 348.88 24.7169L272.151 51.4917C272.151 51.4917 270.898 48.6795 268.124 47.6174C263.337 45.785 260.358 50.0212 260.358 50.0212C260.358 50.0212 261.379 48.242 261.28 46.5468C261.163 44.5101 258.912 42.7051 255.878 43.1135C255.878 43.1135 257.241 30.4305 245.041 32.8326C245.041 32.8326 243.146 18.2484 224.385 19.7789C210.372 20.9216 207.368 31.3536 207.368 31.3536C207.368 31.3536 200.738 28.6203 198.839 35.9415C198.839 35.9415 183.917 25.0721 169.34 38.0588C157.55 48.5628 162.811 58.504 170.062 60.8495C177.314 63.195 186.118 61.0245 184.315 52.4902C182.371 43.2902 151.931 51.4676 152.355 64.4681C152.497 68.8176 162.5 68.6031 161.411 64.8764C159.865 59.5884 149.509 73.2941 149.509 73.2941C149.509 73.2941 145.24 66.038 140.865 70.9675C136.489 75.8952 141.053 79.0282 141.022 76.5352C140.991 74.0421 134.504 67.7006 130.626 73.3593C126.75 79.0179 129.113 86.9036 126.625 87.2468C106.233 87.2468 0.999512 87.2485 0.999512 87.2485" stroke="#CECECE" stroke-width="2" stroke-linecap="round" stroke-linejoin="round"/>
</svg>
