<svg width="536" height="160" viewBox="0 0 536 160" fill="none" xmlns="http://www.w3.org/2000/svg">
<path d="M-65 155.735H-41.1679C-41.1679 155.735 -41.9408 152.31 -39.9034 152.731C-37.8639 153.154 -36.739 156.597 -36.739 156.597C-36.739 156.597 -36.8786 150.129 -34.4891 150.2C-32.0996 150.271 -30.8331 156.456 -30.8331 156.456C-30.8331 156.456 -30.4122 147.879 -28.1624 148.231C-25.9125 148.583 -25.7021 155.964 -25.7021 155.964C-25.7021 155.964 -24.7876 147.458 -22.9605 147.527C-21.1335 147.598 -20.1482 155.541 -20.1482 155.541C-20.1482 155.541 -19.5149 148.721 -18.04 148.3C-16.563 147.877 -15.8609 155.331 -15.8609 155.331C-15.8609 155.331 -15.6505 143.098 -13.611 143.169C-11.5716 143.24 -11.9236 154.91 -11.9236 154.91C-11.9236 154.91 -11.0799 140.427 -8.69044 140.359C-6.30096 140.288 -6.30096 155.333 -6.30096 155.333C-6.30096 155.333 -4.82398 145.983 -0.957511 146.967C2.90895 147.95 4.73597 155.735 4.73597 155.735H34.3768C34.3768 155.735 34.3242 145.368 35.6333 145.417C36.9444 145.465 36.655 155.735 36.655 155.735H48.8715C48.8715 155.735 46.5994 151.199 51.5969 151.491C56.5943 151.782 55.2833 155.663 55.2833 155.663C55.2833 155.663 52.2767 156.003 52.4689 154.4C52.6631 152.8 59.9874 155.563 59.9874 155.563C59.9874 155.563 62.7532 148.092 53.7294 148.868L53.4866 143.485L22.9231 143.582C22.9231 143.582 31.9469 142.224 37.9621 136.45C43.9772 130.677 44.8027 126.505 44.8027 126.505C44.8027 126.505 45.5311 135.189 53.2438 139.555C53.2438 139.555 47.6636 133.103 47.1315 128.203C47.1315 128.203 62.6722 133.631 72.1411 118.855C72.1411 118.855 71.1679 125.447 68.2038 129.297C65.1973 133.2 60.9322 135.06 60.9322 135.06L69.9722 136.929L59.8457 139.22L71.4795 139.582C71.4795 139.582 70.9373 155.918 72.6854 155.737C74.4335 155.557 74.3121 139.521 74.3121 139.521L87.8477 135.385C87.8477 135.385 126.152 136.257 136.432 134.693C136.432 134.693 129.725 131.914 124.635 125.388C120.799 120.472 118.703 113.981 118.703 113.981C118.703 113.981 107.989 117.471 95.6272 117.773C84.8999 118.034 73.4077 115.47 73.4077 115.47C73.4077 115.47 74.1381 130.865 87.9732 137.931L129.877 137.522L129.818 140.251L120.414 140.5L120.329 149.38C120.329 149.38 117.618 145.473 115.664 149.66C115.664 149.66 113.909 147.228 112.554 149.979C112.554 149.979 111.239 147.149 108.368 147.588C105.497 148.027 105.537 150.698 105.537 150.698C105.537 150.698 103.864 149.581 102.587 150.099C101.149 150.683 101.351 152.531 101.351 152.531C101.351 152.531 98.2008 150.977 97.5635 154.364C97.5635 154.364 93.5776 150.178 90.0288 156.357C90.0288 156.357 94.5731 153.407 99.6373 158.59C99.6373 158.59 106.535 153.368 113.47 157.953C113.47 157.953 114.328 155.023 117.733 154.772C120.979 154.534 122.838 157.712 122.838 157.712C122.838 157.712 125.379 152.172 131.399 155.122C131.399 155.122 133.05 151.268 136.706 153.571C136.706 153.571 138.899 144.64 144.957 153.067C144.957 153.067 146.336 146.125 153.996 146.659C160.445 147.108 160.754 154.647 160.754 154.647C160.754 154.647 166.636 147.011 169.531 155.612C169.531 155.612 169.794 149.819 174.974 153.067C174.974 153.067 173.705 147.199 178.211 145.947C183.089 144.589 185.806 150.02 185.806 150.02C185.806 150.02 187.19 145.7 188.623 145.354C190.055 145.006 192.649 148.452 192.649 148.452C192.649 148.452 194.367 143.084 196.331 148.539C196.331 148.539 201.373 140.796 202.448 149.467C202.448 149.467 207.949 145.801 207.51 152.209C207.51 152.209 213.333 146.309 215.439 153.243L214.917 141.427L177.97 141.049L177.804 139.215H193.574V134.218L152.908 133.393C152.908 133.393 135.022 128.684 127.876 117C127.876 117 137.644 127.244 155.621 127.478C168.151 127.642 176.018 123.015 176.018 123.015C176.018 123.015 181.264 127.163 195.202 127.478C207.498 127.758 214.608 123.521 214.608 123.521C214.608 123.521 200.165 125.219 197.472 113.15L151.805 112.237L151.781 107.432L159.728 107.446C159.728 107.446 155.32 104.563 154.389 98.133C154.389 98.133 159.56 105.686 162.326 107.11L189.485 107.697C189.485 107.697 197.448 104.177 201.974 95.4583C201.974 95.4583 186.745 97.3015 176.016 89.7587C176.016 89.7587 165.93 96.2979 150.925 95.2903C140.339 94.5802 133.574 90.3455 133.574 90.3455C133.574 90.3455 147.656 92.9433 160.23 85.3156H195.939L196.107 80.2028H161.319V74.2524C161.319 74.2524 171.712 76.0956 187.471 74.8391C203.231 73.5827 208.997 68.2332 208.997 68.2332C208.997 68.2332 192.188 73.0324 176.016 63.9843C176.016 63.9843 162.745 70.7319 151.931 69.7263C141.118 68.7208 137.262 65.3682 137.262 65.3682C137.262 65.3682 145.392 66.7258 158.614 57.8902C167.991 51.6222 170.893 45.8983 170.893 45.8983L180.74 46.1593L180.677 42.2281L174.274 42.0379C174.274 42.0379 176.113 11.2863 175.741 1C175.741 1 174.255 33.3156 177.442 41.4411C180.631 49.5645 190.326 58.3495 200.706 63.2863C207.065 66.3111 215.285 65.3662 215.285 65.3662C215.285 65.3662 208.228 75.3854 189.072 76.393C189.072 76.393 188.258 88.4638 218.466 90.3455C218.466 90.3455 211.718 95.4724 206.29 95.7051C206.29 95.7051 200.343 104.579 194.674 107.782L201.737 107.952L201.796 112.879C201.796 112.879 202.118 121.39 211.53 120.45C214.316 120.17 222.597 118.884 227.997 116.023C242.597 108.288 241.928 99.6667 241.928 99.6667C241.928 99.6667 234.769 110.558 223.261 120.274C216.325 126.129 206.994 130.432 206.994 130.432C206.994 130.432 247.401 131.029 263.101 130.653C263.101 130.653 271.698 128.243 282.824 115.833C291.85 105.761 296.267 96.83 296.267 96.83C296.267 96.83 256.548 102.368 245.195 95.1507L246.786 92.6763C246.786 92.6763 255.674 96.3647 272.143 96.1644C289.994 95.9459 299.032 93.0506 299.032 93.0506C299.032 93.0506 303.484 112.069 310.039 119.661C317.236 127.992 325.335 127.717 325.335 127.717C325.335 127.717 318.97 130.981 307.935 132.168C301.982 132.81 295.39 132.168 295.39 132.168C295.39 132.168 291.929 139.44 280.034 141.18C280.034 141.18 293.141 143.511 302.941 135.009C302.941 135.009 304.657 137.724 309.996 139.837C312.872 140.974 318.553 141.267 318.553 141.267C318.553 141.267 321.329 139.673 323.15 137.656C324.971 135.638 325.835 133.198 325.835 133.198C325.835 133.198 329.179 140.539 340.042 139.99C340.042 139.99 333.685 144.272 325.992 139.442V149.757H296.807C296.807 149.757 297.246 143.612 292.528 144.27C287.809 144.927 287.48 149.208 287.48 149.208C287.48 149.208 286.162 143.391 283.091 148.11C283.091 148.11 282.543 140.978 276.507 145.148C276.507 145.148 276.068 138.343 272.997 139.112C269.924 139.881 271.352 147.782 271.352 147.782C271.352 147.782 269.816 140.759 265.974 145.698C265.974 145.698 267.585 138.685 263.779 137.797C261.313 137.221 260.157 140.211 260.157 140.211C260.157 140.211 258.951 134.615 255.219 135.054C251.488 135.493 251.488 138.785 251.488 138.785C251.488 138.785 244.356 134.285 245.234 142.406C245.234 142.406 237.551 135.274 237.333 145.589C237.333 145.589 229.541 141.089 230.968 150.198C230.968 150.198 224.275 144.765 220.872 155.74H356.942L356.793 133.247C356.793 133.247 347.504 137.249 336.42 133.079C336.42 133.079 350.397 133.834 358.294 126.463C366.191 119.092 367.643 115.068 367.643 115.068L378.715 115.181C378.715 115.181 381.964 124.648 390.866 128.11C398.369 131.027 409.28 130.244 409.28 130.244C409.28 130.244 386.982 140.191 367.285 119.776C367.285 119.776 352.768 129.846 337.248 129.844C337.248 129.844 352.141 135.673 367.132 124.614L367.486 155.74H384.746V133.465C384.746 133.465 387.384 135.076 390.531 134.922V155.74H418.308C418.308 155.74 416.708 147.798 420.542 145.206C424.659 142.42 432.374 139.796 437.667 142.2C440.778 143.612 439.107 155.74 439.107 155.74H430.964C430.964 155.74 429.108 144.342 442.045 145.018C454.986 145.694 458.179 155.974 458.179 155.974C458.179 155.974 456.985 151.543 460.732 151.25C464.481 150.959 464.821 155.584 464.821 155.584C464.821 155.584 464.754 150.564 465.992 150.422C467.229 150.281 469.448 155.292 469.448 155.292C469.448 155.292 469.416 152.444 472.564 151.737C475.676 151.039 476.946 154.805 476.946 154.805C476.946 154.805 477.711 142.428 480.633 143.215C483.56 144.003 488.06 154.016 483.674 154.803C479.283 155.59 484.35 146.704 486.822 147.039C489.294 147.375 490.986 153.985 490.986 153.985L487.53 153.989C487.53 153.989 487.101 150.303 491.755 150.404C495.055 150.475 494.658 153.53 494.658 153.53C494.658 153.53 494.379 147.493 497.476 147.258C501.375 146.961 500.03 153.376 500.03 153.376C500.03 153.376 500.455 149.131 503.532 149.902C505.94 150.505 505.398 152.533 505.398 152.533C505.398 152.533 505.837 148.937 509.122 148.63C512.412 148.322 511.611 153.223 511.611 153.223C511.611 153.223 513.371 149.004 515.595 149.54C517.822 150.076 519.047 152.684 519.047 152.684C519.047 152.684 520.275 149.54 522.116 149.771C523.957 150.002 524.495 152.607 524.495 152.607L535 152.684" stroke="#CECECE" stroke-width="2" stroke-linecap="round" stroke-linejoin="round"/>
</svg>
